<svg xmlns="http://www.w3.org/2000/svg" width="319.502" height="65.5" viewBox="0 0 319.502 55"><defs><style>.a{fill:#d5d5d5;}</style></defs><g transform="translate(-20.553 -482)"><path class="a" d="M14707.3,7408.5h25.446l-30.919,29.422v-24.9Z" transform="translate(-14681 -6926)"/><path class="a" d="M14745.058,7408.5h30.371l-57.186,64.726h-16.69v-17.985Z" transform="translate(-14681 -6926)"/><path class="a" d="M14789.656,7408h29.277l-51.987,65.5h-32.833Z" transform="translate(-14681 -6926)"/><path class="a" d="M14789.656,7408h29.277l-51.987,65.5h-32.833Z" transform="translate(-14633.981 -6926)"/><path class="a" d="M14789.656,7408h29.277l-51.987,65.5h-32.833Z" transform="translate(-14584.97 -6926)"/><path class="a" d="M14789.656,7408h29.277l-51.987,65.5h-32.833Z" transform="translate(-14535.959 -6926)"/><path class="a" d="M14789.656,7408h29.277l-51.987,65.5h-32.833Z" transform="translate(-14486.945 -6926)"/><path class="a" d="M15021,7473.492h-38.172l38.172-49.8Z" transform="translate(-14680.945 -6926.266)"/></g></svg>